<?xml version="1.0" encoding="utf-8"?>
<!-- Generator: Adobe Illustrator 26.0.3, SVG Export Plug-In . SVG Version: 6.00 Build 0)  -->
<svg version="1.1" id="Layer_1" xmlns="http://www.w3.org/2000/svg" xmlns:xlink="http://www.w3.org/1999/xlink" x="0px" y="0px"
	 viewBox="0 0 595.28 841.89" style="enable-background:new 0 0 595.28 841.89;" xml:space="preserve">
<style type="text/css">
	.st0{fill:#0070F3;stroke:#FFFFFF;stroke-width:4;stroke-miterlimit:10;}
	.st1{fill:#0070F3;}
	.st2{fill:#FFFFFF;}
	.st3{fill:none;stroke:#FFFFFF;stroke-width:9;stroke-miterlimit:10;}
	.st4{fill:none;stroke:#FFFFFF;stroke-width:6;stroke-miterlimit:10;}
	.st5{fill:none;stroke:#FFFFFF;stroke-width:3;stroke-miterlimit:10;}
</style>
<ellipse class="st0" cx="304.15" cy="261.97" rx="154.87" ry="147.79"/>
<circle class="st1" cx="304.51" cy="128.91" r="6.24"/>
<g>
	<g>
		<circle class="st2" cx="303.15" cy="128.62" r="16.18"/>
	</g>
	<circle class="st1" cx="303.15" cy="128.62" r="6.39"/>
</g>
<g>
	<g>
		<circle class="st2" cx="164.15" cy="259.09" r="16.18"/>
	</g>
	<circle class="st1" cx="164.15" cy="259.09" r="6.39"/>
</g>
<g>
	<g>
		<circle class="st2" cx="300.78" cy="395.59" r="16.18"/>
	</g>
	<circle class="st1" cx="300.78" cy="395.59" r="6.39"/>
</g>
<g>
	<g>
		<circle class="st2" cx="444" cy="258.26" r="16.18"/>
	</g>
	<circle class="st1" cx="444" cy="258.26" r="6.39"/>
</g>
<path class="st3" d="M368.67,213.45c0,0-88.56-1.45-104.4-1.45c-16.2,0-32.55,18.37-35.43,29.89c-2.88,11.52-4.89,27.68,5.19,46.42
	s28.8,21.61,44.64,21.61c15.84,0,34.88,1.28,48.52,0c15.2-1.43,41.22-10.13,41.48-24.12c0.26-14.32,0-8.27,0-13.67"/>
<path class="st3" d="M309.96,259.09c37.11-0.64,58.71,0,58.71,0H309.96z"/>
<line class="st3" x1="239.67" y1="258.26" x2="305.35" y2="258.68"/>
<polyline class="st3" points="301.78,311.2 301.78,272.13 239.67,272.13 "/>
<path class="st4" d="M246.6,387.96"/>
<path class="st4" d="M246.6,141.63"/>
<g>
	<path class="st5" d="M247.73,137.08c3.81-2.27-36.24,23.52-36.24,23.52s-21.81,14.88-23.97,24.24S185,258.65,185,258.65l2.89,89.16
		"/>
	<path class="st5" d="M247.73,392.21c3.81,2.27-36.48-21.12-36.48-21.12s-24-16.82-23.73-26.64c0.26-9.6-2.51-74.04-2.51-74.04
		l2.52-85.8"/>
</g>
<g>
	<path class="st5" d="M267.73,137.08c3.81-2.27-36.24,23.52-36.24,23.52s-21.81,14.88-23.97,24.24S205,258.65,205,258.65l2.89,89.16
		"/>
	<path class="st5" d="M267.73,392.21c3.81,2.27-36.48-21.12-36.48-21.12s-24-16.82-23.73-26.64c0.26-9.6-2.51-74.04-2.51-74.04
		l2.52-85.8"/>
</g>
<g>
	<path class="st5" d="M356.26,134.08c-3.81-2.27,36.24,23.52,36.24,23.52s21.81,14.88,23.97,24.24s2.52,73.81,2.52,73.81
		l-2.89,89.16"/>
	<path class="st5" d="M356.26,389.21c-3.81,2.27,36.48-21.12,36.48-21.12s24-16.82,23.73-26.64c-0.26-9.6,2.51-74.04,2.51-74.04
		l-2.52-85.8"/>
</g>
<g>
	<path class="st5" d="M336.26,134.08c-3.81-2.27,36.24,23.52,36.24,23.52s21.81,14.88,23.97,24.24s2.52,73.81,2.52,73.81
		l-2.89,89.16"/>
	<path class="st5" d="M336.26,389.21c-3.81,2.27,36.48-21.12,36.48-21.12s24-16.82,23.73-26.64c-0.26-9.6,2.51-74.04,2.51-74.04
		l-2.52-85.8"/>
</g>
<g>
	<path class="st5" d="M426.46,180.61"/>
</g>
<g>
	<g>
		<path class="st2" d="M220.64,341.84c0.65,2.24,2.19,3.79,5.75,3.79c3.51,0,4.79-1.42,4.79-3.18c0-1.86-1-2.99-5.63-3.84
			c-5.86-1.08-7.17-3.09-7.17-5.86c0-3.7,3.25-5.76,7.43-5.76c6.19,0,7.71,3.5,7.92,5.64h-3.14c-0.35-1.3-1.11-3.02-4.87-3.02
			c-2.58,0-4.17,0.94-4.17,2.81c0,1.55,0.77,2.5,4.86,3.25c6.87,1.28,7.97,3.58,7.97,6.44c0,3.32-2.43,6.12-8.24,6.12
			c-5.4,0-8.05-2.66-8.65-6.39H220.64z"/>
		<path class="st2" d="M257.15,337.55c0,5.74-3.56,10.7-9.99,10.7c-6.13,0-9.88-4.72-9.88-10.7c0-5.65,3.87-10.57,9.99-10.57
			C253.4,326.98,257.15,331.91,257.15,337.55z M240.56,337.47c0,4.26,2.31,8.01,6.73,8.01c4.4,0,6.57-3.71,6.57-7.88
			c0-4.08-2.26-7.86-6.74-7.86C242.91,329.74,240.56,333.37,240.56,337.47z"/>
		<path class="st2" d="M261.19,327.41h3.09V345h11.14l-0.45,2.81h-13.78V327.41z"/>
		<path class="st2" d="M281.34,327.41v11.58c0,5.11,2.7,6.49,5.43,6.49c3.21,0,5.18-1.62,5.18-6.49v-11.58h3.11v11.6
			c0,6.53-3.19,9.24-8.39,9.24c-5.13,0-8.43-2.69-8.43-9.04v-11.79H281.34z"/>
		<path class="st2" d="M304.75,330.21h-7.03v-2.8h17.18v2.8h-7.02v17.6h-3.12V330.21z"/>
		<path class="st2" d="M320.83,327.41v20.4h-3.11v-20.4H320.83z"/>
		<path class="st2" d="M344.75,337.55c0,5.74-3.56,10.7-9.99,10.7c-6.13,0-9.88-4.72-9.88-10.7c0-5.65,3.88-10.57,9.99-10.57
			C341,326.98,344.75,331.91,344.75,337.55z M328.16,337.47c0,4.26,2.31,8.01,6.73,8.01c4.4,0,6.57-3.71,6.57-7.88
			c0-4.08-2.26-7.86-6.74-7.86C330.51,329.74,328.16,333.37,328.16,337.47z"/>
		<path class="st2" d="M348.79,347.81v-20.4h3.71c4.48,6.95,9.58,14.1,10.67,16.27h0.05c-0.17-2.53-0.14-5.9-0.14-9.22v-7.05h2.89
			v20.4h-3.49c-2.55-3.83-9.59-14.62-10.89-16.99h-0.05c0.14,2.6,0.14,5.49,0.14,9.11v7.88H348.79z"/>
		<path class="st2" d="M372.71,341.84c0.65,2.24,2.19,3.79,5.75,3.79c3.51,0,4.79-1.42,4.79-3.18c0-1.86-1-2.99-5.63-3.84
			c-5.86-1.08-7.17-3.09-7.17-5.86c0-3.7,3.25-5.76,7.43-5.76c6.19,0,7.71,3.5,7.92,5.64h-3.14c-0.35-1.3-1.11-3.02-4.87-3.02
			c-2.58,0-4.17,0.94-4.17,2.81c0,1.55,0.77,2.5,4.86,3.25c6.87,1.28,7.97,3.58,7.97,6.44c0,3.32-2.43,6.12-8.24,6.12
			c-5.4,0-8.05-2.66-8.65-6.39H372.71z"/>
	</g>
</g>
</svg>
