<svg id="Layer_1" data-name="Layer 1" xmlns="http://www.w3.org/2000/svg" viewBox="0 0 556.42 328.86"><path d="M428.45,336.32v-93H276.5L249.12,278h0l-2.22,2.82-2.11,2.68h0L186,358h0l-2.56,3.25-.36.46,6.59,64.88,4,.64-1.93,2.18.35.31-.33.38,0,0-1.58,1.74-.2.21.3,25.68,74.19,83.34c14.82-17.43,34.93-27.33,55.82-27.33a67.83,67.83,0,0,1,27.55,5.85l12.81-36.49h0l1-2.8.76-2.16h0l29.6-82,3.28,1.17-1.35-3.2,34.49-14.57V336.32Z" transform="translate(-174.76 -235.3)" style="fill:none"/><polygon points="289.19 108.95 290.07 108.07 292.37 105.76 292.38 105.76 359.45 38.69 359.45 38.69 359.79 38.35 359.78 38.35 362.04 36.1 364.74 33.4 364.74 33.4 390.14 8 354.73 8 354.23 8 353.73 8 347.73 8 347.23 8 346.73 8 310.76 8 310.26 8 309.76 8 303.76 8 303.26 8 302.76 8 261.69 8 261.69 49.07 261.69 49.58 261.69 50.08 261.69 56.07 261.69 56.58 261.69 57.08 261.69 93.03 261.69 93.53 261.69 94.03 261.69 100.03 261.69 100.53 261.69 101.03 261.69 136.44 261.69 137.15 261.69 137.16 287.07 111.77 286.72 111.42 289.19 108.95" style="fill:none"/><polygon points="310.81 142.6 495.02 142.6 495.07 142.6 495.08 142.1 310.76 142.1 310.77 142.6 310.81 142.6" style="fill:#92278f"/><polygon points="364.75 43.99 297.71 111.03 297.71 111.03 297.68 111.07 298.03 111.42 297.69 111.76 297.69 111.76 365.82 43.63 365.11 44.34 364.75 43.99" style="fill:#92278f"/><polygon points="151.92 0.5 204.57 0.5 204.61 0.5 204.61 0 151.87 0 151.87 0.5 151.92 0.5" style="fill:#92278f"/><polygon points="310.81 0.5 346.67 0.5 346.72 0.5 346.73 0 310.76 0 310.77 0.5 310.81 0.5" style="fill:#92278f"/><polygon points="4.96 117.76 5.35 118.06 5.37 118.04 5.37 118.04 63.75 44.04 63.75 44.04 63.77 44.01 63.38 43.7 4.66 118.14 4.66 118.14 4.96 117.76" style="fill:#92278f"/><polygon points="66.28 40.03 66.56 39.67 65.42 41.12 65.61 40.88 66.28 40.03" style="fill:#92278f"/><polygon points="520.59 187.34 520.44 187.53 522.82 184.8 522.69 184.69 520.59 187.34" style="fill:#92278f"/><polygon points="517.91 189.91 517.79 189.81 435.61 283.99 435.87 284.19 435.58 284.56 435.58 284.56 433.67 286.97 433.67 286.97 518.21 190.08 517.95 189.87 517.91 189.91" style="fill:#92278f"/><polygon points="151.92 7.5 151.87 7.5 151.87 8 204.61 8 204.61 7.5 204.57 7.5 204.57 4 204.57 0.5 151.92 0.5 151.92 4 151.92 7.5" style="fill:#92278f"/><polygon points="310.81 7.5 310.77 7.5 310.76 8 346.73 8 346.72 7.5 346.67 7.5 346.67 4 346.67 0.5 310.81 0.5 310.81 4 310.81 7.5" style="fill:#92278f"/><polygon points="186.89 245.04 187.67 242.88 187.65 242.88 186.89 245.04" style="fill:#92278f"/><path d="M347.86,519.63c1.28.57,2.55,1.18,3.82,1.83l2.74,1.4L352.19,529l.52.29L367.57,487l-6.9-3.83Z" transform="translate(-174.76 -235.3)" style="fill:#92278f"/><polygon points="426.84 282.63 425.12 284.61 425.26 284.71 426.67 282.93 426.84 282.63" style="fill:#92278f"/><polygon points="430.01 279.51 432.29 281.33 435.5 283.85 435.48 283.88 435.61 283.99 517.79 189.81 515.02 187.57 512.44 185.55 512.47 185.51 512.08 185.21 512.37 184.84 512.36 184.84 514.26 182.44 429.73 279.32 430 279.53 430.01 279.51" style="fill:#92278f"/><polygon points="289.65 108.49 290.07 108.07 289.19 108.95 289.65 108.49" style="fill:#92278f"/><path d="M537,276.85h0l-2.46-2.48,0,0-.35-.35-67.07,67.07.36.35,0,0,2.47,2.48,2.47,2.47,67-67h0l0,0Z" transform="translate(-174.76 -235.3)" style="fill:#92278f"/><path d="M261.58,544.72c.94-1.24,1.92-2.44,2.91-3.61L190.3,457.77l0,2.61-3.5,0h0l-3.5,0V459.3l-1,1.34,82.29,92.44.31-.43-5.16-5.59Z" transform="translate(-174.76 -235.3)" style="fill:#92278f"/><polygon points="495.02 149.6 495.02 146.1 495.02 142.6 310.81 142.6 310.81 146.1 310.81 149.6 310.77 149.6 310.76 150.1 495.08 150.1 495.07 149.6 495.02 149.6" style="fill:#92278f"/><path d="M185.62,357.69l0,0,.39.31,58.8-74.52h0l-.29.38-.4-.3,0,0-1.46-1.13-.85-.63-.31-.24-.11-.09-2.83-2.16-58.38,74,3,2.38Z" transform="translate(-174.76 -235.3)" style="fill:#92278f"/><polygon points="254.19 259.65 254.19 233.78 253.69 233.46 253.69 259.69 254.19 259.69 254.19 259.65" style="fill:#92278f"/><polygon points="254.19 233.78 254.19 259.65 257.69 259.65 257.69 259.65 261.19 259.65 261.19 259.69 261.69 259.69 261.69 238.61 255.75 234.78 254.19 233.78" style="fill:#92278f"/><polygon points="254.19 92.98 254.19 57.12 254.19 57.08 253.69 57.08 253.69 93.03 254.19 93.02 254.19 92.98" style="fill:#92278f"/><polygon points="261.19 57.12 257.69 57.12 254.19 57.12 254.19 92.98 257.69 92.98 257.69 92.98 261.19 92.98 261.19 93.02 261.69 93.03 261.69 57.08 261.19 57.08 261.19 57.12" style="fill:#92278f"/><polygon points="255.75 234.78 254.19 233.78 254.19 225.46 254.19 199.23 254.19 199.19 253.69 199.19 253.69 225.14 253.69 233.46 254.19 233.78 255.75 234.78" style="fill:#92278f"/><polygon points="261.19 199.23 257.69 199.23 254.19 199.23 254.19 225.46 254.19 233.78 255.75 234.78 261.69 238.61 261.69 230.29 261.69 199.19 261.19 199.19 261.19 199.23" style="fill:#92278f"/><polygon points="98.1 0.5 143.87 0.5 143.86 0 97.86 0 68.34 37.42 68.73 37.73 98.1 0.5" style="fill:#92278f"/><polygon points="65.61 40.88 65.89 40.53 66.28 40.03 65.61 40.88" style="fill:#92278f"/><polygon points="74.36 42.7 74.36 42.7 101.73 8 143.86 8 143.89 4 143.87 0.5 98.1 0.5 68.73 37.73 70.94 39.46 74.68 42.29 74.36 42.7" style="fill:#92278f"/><polygon points="64.07 43.64 63.67 43.34 65.89 40.53 65.61 40.88 65.42 41.12 63.38 43.7 63.38 43.7 63.77 44.01 64.07 43.64" style="fill:#92278f"/><polygon points="69.31 48.3 69.33 48.27 67.85 47.16 69.31 48.3" style="fill:#92278f"/><polygon points="151.42 0.5 151.87 0.5 151.87 0 151.38 0 151.38 0.5 151.42 0.5" style="fill:#92278f"/><path d="M326.68,239.3c0,.13,0,.26,0,.4v.14l0,3h.05Z" transform="translate(-174.76 -235.3)" style="fill:#92278f"/><path d="M241.45,281.59l.31.24.85.63,1.48,1.11.4.3.29-.38-.39-.29h0l-.93-.71-1.4-1.05-.3-.24-.12-.09L238.81,279l0,0h0l-.29.37,0,0h0l2.83,2.16Z" transform="translate(-174.76 -235.3)" style="fill:#92278f"/><polygon points="72.14 45.52 74.36 42.7 74.36 42.7 74.36 42.7 72.14 45.52" style="fill:#92278f"/><path d="M326.18,242.8h0v.5h.49v-.5l0-3v-.14c0-.14,0-.27,0-.4v-3.5h-.5v7Z" transform="translate(-174.76 -235.3)" style="fill:#92278f"/><polygon points="65.89 40.53 63.67 43.34 64.07 43.64 64.07 43.64 68.7 37.76 70.94 39.46 68.73 37.73 68.34 37.42 68.34 37.41 66.56 39.67 66.28 40.03 65.89 40.53" style="fill:#92278f"/><polygon points="69.61 47.91 69.62 47.9 68.69 47.2 69.61 47.91" style="fill:#92278f"/><polygon points="143.89 4 143.92 0.5 144.42 0.5 144.92 0.5 150.92 0.5 151.38 0.5 151.38 0 150.87 0 144.86 0 144.38 0 143.86 0 143.87 0.5 143.89 4" style="fill:#92278f"/><path d="M326.18,239.3c0,.13,0,.26,0,.39v.14l0,3h0Z" transform="translate(-174.76 -235.3)" style="fill:#92278f"/><path d="M319.14,243.3h7v-.5l0-3v-.14c0-.13,0-.26,0-.39v-3.5h-7.5l0,3.5,0,4Z" transform="translate(-174.76 -235.3)" style="fill:#92278f"/><path d="M241.63,281.12l.12.09.3.24,1.4,1.05.94.7.39.29h0l2.11-2.68,2.22-2.82.32-.41-3.74-2.83-2.23-1.7-4.64,5.88,0,0Z" transform="translate(-174.76 -235.3)" style="fill:#92278f"/><polygon points="0.32 123.63 0.32 123.63 2.46 120.92 0.32 123.63" style="fill:#92278f"/><polygon points="4.96 117.76 4.66 118.14 5.05 118.44 5.35 118.06 4.96 117.76" style="fill:#92278f"/><polygon points="8.35 120.42 10.84 122.41 10.85 122.39 8.35 120.42" style="fill:#92278f"/><polygon points="17.02 194.84 16.99 194.82 15.43 196.58 17.02 194.84" style="fill:#92278f"/><polygon points="7.92 120.69 10.51 122.72 10.5 122.74 10.94 123.09 8.67 125.97 11.23 122.72 11.23 122.72 10.84 122.41 8.35 120.42 5.37 118.04 5.37 118.04 5.35 118.06 5.05 118.44 5.05 118.45 5.07 118.42 7.92 120.69" style="fill:#92278f"/><polygon points="16.99 194.82 17.32 194.44 16.97 194.13 16.64 194.5 16.66 194.53 15.23 196.09 15.24 196.79 15.43 196.58 16.99 194.82" style="fill:#92278f"/><polygon points="0.41 124.33 5.05 118.45 5.05 118.44 4.66 118.14 4.66 118.14 4.66 118.14 2.46 120.92 0.32 123.63 0 124.04 1.12 124.92 1.12 124.89 0.41 124.33" style="fill:#92278f"/><polygon points="7.92 120.69 10.5 122.74 10.51 122.72 7.92 120.69" style="fill:#92278f"/><polygon points="6.39 194.69 8.02 192.88 8.02 192.85 6.02 195.03 8.24 197.04 8.24 196.35 6.39 194.69" style="fill:#92278f"/><polygon points="16.64 194.5 15.23 196.09 15.23 196.09 16.66 194.53 16.64 194.5" style="fill:#92278f"/><polygon points="16.97 194.13 18.9 191.95 14.9 191.31 15.14 193.7 8.18 194.41 8.02 192.88 6.39 194.69 8.24 196.35 8.22 194.82 11.72 194.78 11.72 194.78 11.72 194.78 15.22 194.74 15.23 196.09 16.64 194.5 16.97 194.13" style="fill:#92278f"/><polygon points="10.94 123.09 10.5 122.74 7.92 120.69 5.07 118.42 5.05 118.45 0.41 124.33 1.12 124.89 0.99 123.69 7.96 122.98 8.31 126.43 8.67 125.97 10.94 123.09" style="fill:#92278f"/><path d="M351.68,521.46c-1.27-.65-2.54-1.26-3.82-1.83a67.83,67.83,0,0,0-27.55-5.85c-20.89,0-41,9.9-55.82,27.33-1,1.17-2,2.37-2.91,3.61l-1.79,2.34,5.16,5.59.26.28,2.53-3.31c13.57-17.73,32.73-27.91,52.57-27.91a60.44,60.44,0,0,1,27.85,6.85l3.54,1.82.49-1.37,2.23-6.15Z" transform="translate(-174.76 -235.3)" style="fill:#92278f"/><polygon points="220.55 162.06 217.27 160.89 187.67 242.88 186.89 245.04 185.88 247.83 185.91 247.84 192.81 251.68 192.81 251.68 223.35 164.7 221.92 165.3 220.55 162.06" style="fill:#92278f"/><polygon points="253.69 0.5 254.19 0.5 254.69 0.5 257.19 0.5 258.19 0.5 260.69 0.5 261.19 0.5 261.69 0.5 302.76 0.5 302.76 0 212.61 0 212.61 0.5 253.69 0.5" style="fill:#92278f"/><polygon points="253.69 8 253.69 1 253.69 0.5 212.61 0.5 212.59 4 212.61 8 253.69 8" style="fill:#92278f"/><polygon points="261.69 8 302.76 8 302.79 4 302.76 0.5 261.69 0.5 261.69 1 261.69 8" style="fill:#92278f"/><rect x="261.19" y="8" width="0.5" height="41.07" style="fill:#92278f"/><polygon points="261.19 49.07 261.19 8 260.69 8 254.69 8 254.19 8 253.69 8 253.69 49.07 257.69 49.1 261.19 49.07" style="fill:#92278f"/><polygon points="261.19 8 261.69 8 261.69 1 261.69 0.5 261.19 0.5 261.19 1 261.19 8" style="fill:#92278f"/><polygon points="253.69 8 254.19 8 254.69 8 260.69 8 261.19 8 261.19 1 261.19 0.5 260.69 0.5 258.19 0.5 257.19 0.5 254.69 0.5 254.19 0.5 253.69 0.5 253.69 1 253.69 8" style="fill:#92278f"/><polygon points="310.31 0.5 310.77 0.5 310.76 0 310.26 0 310.27 0.5 310.31 0.5" style="fill:#92278f"/><path d="M485.57,239.3v.54l0,3h0Z" transform="translate(-174.76 -235.3)" style="fill:#92278f"/><polygon points="205.07 0.5 205.12 0.5 205.12 0 204.61 0 204.61 0.5 205.07 0.5" style="fill:#92278f"/><path d="M379.33,239.3v3.5h0l0-3.11C379.33,239.56,379.33,239.43,379.33,239.3Z" transform="translate(-174.76 -235.3)" style="fill:#92278f"/><path d="M485.07,242.8h0v.5h.5v-.5l0-3v-4h-.5v7Z" transform="translate(-174.76 -235.3)" style="fill:#92278f"/><path d="M379.34,239.69l0,3.11v.5h.51v-.5h-.05v-7h-.5v3.5C379.33,239.43,379.33,239.56,379.34,239.69Z" transform="translate(-174.76 -235.3)" style="fill:#92278f"/><polygon points="261.19 56.62 261.19 56.62 261.19 57.08 261.69 57.08 261.69 56.58 261.19 56.58 261.19 56.62" style="fill:#92278f"/><path d="M432.06,292.41h-.14l-3,0v0h3.11Z" transform="translate(-174.76 -235.3)" style="fill:#92278f"/><path d="M431.92,292.41h4v-.5h-7v0h-.5v.5h.5Z" transform="translate(-174.76 -235.3)" style="fill:#92278f"/><polygon points="302.79 4 302.81 0.5 303.31 0.5 303.81 0.5 309.81 0.5 310.27 0.5 310.26 0 309.76 0 303.76 0 303.26 0 302.76 0 302.76 0.5 302.79 4" style="fill:#92278f"/><path d="M485.07,239.3v.54l0,3h0Z" transform="translate(-174.76 -235.3)" style="fill:#92278f"/><polygon points="205.57 0.5 211.57 0.5 212.07 0.5 212.57 0.5 212.59 4 212.61 0.5 212.61 0 212.12 0 211.61 0 205.61 0 205.12 0 205.12 0.5 205.57 0.5" style="fill:#92278f"/><path d="M379.83,239.3v3.5h.05l0-3.1C379.83,239.56,379.83,239.43,379.83,239.3Z" transform="translate(-174.76 -235.3)" style="fill:#92278f"/><path d="M478,243.3h7v-.5l0-3v-4h-7.5l0,3.5,0,4Z" transform="translate(-174.76 -235.3)" style="fill:#92278f"/><path d="M379.84,239.7l0,3.1v.5h7.49l0-4,0-3.5h-7.5v3.5C379.83,239.43,379.83,239.56,379.84,239.7Z" transform="translate(-174.76 -235.3)" style="fill:#92278f"/><polygon points="257.69 49.1 261.19 49.12 261.19 56.58 261.69 56.58 261.69 56.07 261.69 50.08 261.69 49.58 261.69 49.07 261.19 49.07 257.69 49.1" style="fill:#92278f"/><path d="M431.92,291.91l-3,0v0h3Z" transform="translate(-174.76 -235.3)" style="fill:#92278f"/><path d="M431.92,291.91h4v-7.5l-3.5,0-4,0v7.51h.5Z" transform="translate(-174.76 -235.3)" style="fill:#92278f"/><polygon points="292.37 117.08 289.56 114.23 287.07 111.77 261.69 137.16 261.69 142.6 302.76 142.6 302.76 142.1 267.35 142.1 292.74 116.71 292.74 116.71 292.37 117.08" style="fill:#92278f"/><polygon points="302.76 142.6 261.69 142.6 261.69 143.1 261.69 146.35 261.69 147.05 261.69 149.6 261.69 150.1 302.76 150.1 302.79 146.1 302.76 142.6" style="fill:#92278f"/><polygon points="261.19 101.02 261.19 136.94 261.69 136.44 261.69 101.03 261.19 101.02" style="fill:#92278f"/><polygon points="254.19 154.56 254.19 153.85 254.19 153.84 253.69 154.34 253.69 191.17 254.19 191.18 254.19 154.56" style="fill:#92278f"/><polygon points="260.69 150.1 258.64 150.1 254.19 154.56 254.19 191.18 257.69 191.2 261.69 191.17 261.69 150.1 261.19 150.1 260.69 150.1" style="fill:#92278f"/><polygon points="254.19 143.1 254.19 142.6 254.69 142.6 255.53 142.6 261.19 136.94 261.19 101.02 257.69 101 253.69 101.03 253.69 143.1 253.69 144.28 253.97 144.16 254.19 143.95 254.19 143.1" style="fill:#92278f"/><polygon points="254.19 151.67 253.69 151.88 253.69 154.34 254.19 153.84 254.19 151.67" style="fill:#92278f"/><polygon points="254.19 142.6 254.19 143.1 254.19 143.95 255.19 142.95 255.53 142.6 254.69 142.6 254.19 142.6" style="fill:#92278f"/><polygon points="261.69 147.05 261.19 147.55 261.19 150.1 261.69 150.1 261.69 149.6 261.69 147.05" style="fill:#92278f"/><polygon points="254.19 151.67 254.19 153.84 254.19 153.85 254.19 154.56 258.64 150.1 257.9 150.1 254.19 151.67" style="fill:#92278f"/><polygon points="261.69 137.15 261.69 136.44 261.19 136.94 255.53 142.6 255.19 142.95 261.19 136.96 261.19 143.1 261.19 147.55 261.69 147.05 261.69 146.35 261.69 143.1 261.69 142.6 261.69 137.16 261.69 137.15" style="fill:#92278f"/><polygon points="261.19 136.96 255.19 142.95 254.19 143.95 253.97 144.16 255.83 143.38 258.55 149.83 257.9 150.1 258.64 150.1 260.69 150.1 261.19 150.1 261.19 147.55 261.19 143.1 261.19 136.96" style="fill:#92278f"/><polygon points="297.69 111.76 298.03 111.42 297.68 111.07 297.35 111.4 297.69 111.76" style="fill:#92278f"/><path d="M470,343.86l-2.47-2.48,0,0,2.22,2.17C469.81,343.67,469.91,343.76,470,343.86Z" transform="translate(-174.76 -235.3)" style="fill:#92278f"/><polygon points="292.74 116.71 292.75 116.71 295.3 114.15 292.74 116.71 292.74 116.71" style="fill:#92278f"/><polygon points="310.31 142.6 310.77 142.6 310.76 142.1 310.26 142.1 310.27 142.6 310.31 142.6" style="fill:#92278f"/><path d="M485.56,381.94l0,3h0v-3Z" transform="translate(-174.76 -235.3)" style="fill:#92278f"/><path d="M485.56,381.94v-4h-.5v7h0v.5h.5v-.5Z" transform="translate(-174.76 -235.3)" style="fill:#92278f"/><path d="M469.72,343.58l-2.22-2.17-.36-.35h0l-2.3,2.3-.42.43,2.39-2.39.36.35,0,0,2.47,2.48,2.48,2.47,0,0h0l.34-.34,0,0h0L470,343.86C469.91,343.76,469.81,343.67,469.72,343.58Z" transform="translate(-174.76 -235.3)" style="fill:#92278f"/><polygon points="254.19 198.73 254.19 198.68 253.69 198.68 253.69 199.19 254.19 199.19 254.19 198.73" style="fill:#92278f"/><path d="M436,434.49l-3.1,0H436Z" transform="translate(-174.76 -235.3)" style="fill:#92278f"/><path d="M436,434h-7v.5h3.9l3.1,0h.5V434H436Z" transform="translate(-174.76 -235.3)" style="fill:#92278f"/><polygon points="261.19 93.48 261.19 93.48 261.19 93.52 261.69 93.53 261.69 93.03 261.19 93.02 261.19 93.48" style="fill:#92278f"/><path d="M429,328.32l3.11,0H429Z" transform="translate(-174.76 -235.3)" style="fill:#92278f"/><path d="M429,328.78h7v-.5h-3.89l-3.11,0h-.5v.5h.5Z" transform="translate(-174.76 -235.3)" style="fill:#92278f"/><polygon points="302.79 146.1 302.81 142.6 303.31 142.6 303.81 142.6 309.81 142.6 310.27 142.6 310.26 142.1 309.76 142.1 303.76 142.1 303.26 142.1 302.76 142.1 302.76 142.6 302.79 146.1" style="fill:#92278f"/><path d="M485.06,381.94l0,3h0v-3Z" transform="translate(-174.76 -235.3)" style="fill:#92278f"/><polygon points="297.35 111.4 297.35 111.4 292.06 116.69 289.56 114.23 292.37 117.08 292.74 116.71 295.3 114.15 297.7 111.76 297.69 111.76 297.69 111.76 297.35 111.4" style="fill:#92278f"/><path d="M469.66,344.19h0l-2.47-2.48,0,0,2.22,2.18A3.45,3.45,0,0,1,469.66,344.19Z" transform="translate(-174.76 -235.3)" style="fill:#92278f"/><path d="M485.06,381.94v-4h-7.5l0,3.5,0,4H485v-.5Z" transform="translate(-174.76 -235.3)" style="fill:#92278f"/><path d="M469.66,344.19h0a3.45,3.45,0,0,0-.28-.26l-2.22-2.18-.36-.35-2.39,2.39-.46.45-2.47,2.48.36.35,2.49,2.46,2.49,2.46,5.29-5.29,0,0Z" transform="translate(-174.76 -235.3)" style="fill:#92278f"/><polygon points="261.19 191.23 261.19 198.68 261.69 198.68 261.69 198.18 261.69 192.19 261.69 191.67 261.69 191.17 257.69 191.2 261.19 191.23" style="fill:#92278f"/><path d="M431.91,434l-3,0v0h3Z" transform="translate(-174.76 -235.3)" style="fill:#92278f"/><polygon points="254.19 100.48 254.19 99.98 254.19 93.98 254.19 93.52 253.69 93.53 253.69 94.03 253.69 100.03 253.69 100.53 253.69 101.03 257.69 101 254.19 100.98 254.19 100.48" style="fill:#92278f"/><path d="M436,328.78h-3l3,0v0Z" transform="translate(-174.76 -235.3)" style="fill:#92278f"/><path d="M431.91,434h4v-7.5l-3.5,0-3.5,0h-.5V434h.5Z" transform="translate(-174.76 -235.3)" style="fill:#92278f"/><path d="M436.45,335.82v-7H436l-3,0h-4v7.5l3.5,0,3.5,0h.5Z" transform="translate(-174.76 -235.3)" style="fill:#92278f"/><polygon points="261.69 267.2 261.69 267.69 257.65 267.67 254.22 267.69 262.22 316.27 270.31 316.27 261.69 263.88 261.69 266.69 261.69 267.2" style="fill:#92278f"/><polygon points="253.57 260.65 253.57 260.69 253.07 260.7 253.69 264.45 253.69 260.65 253.57 260.65" style="fill:#92278f"/><polygon points="254.19 260.15 254.19 259.69 253.69 259.69 253.69 260.2 254.19 260.2 254.19 260.15" style="fill:#92278f"/><path d="M433,495l3,0v0h-3Z" transform="translate(-174.76 -235.3)" style="fill:#92278f"/><path d="M433,495h-4v.5h7v0h.5V495H436Z" transform="translate(-174.76 -235.3)" style="fill:#92278f"/><polygon points="261.19 266.65 261.19 267.65 257.65 267.67 261.69 267.69 261.69 267.2 261.69 266.69 261.69 263.88 261.69 260.2 261.19 260.2 261.19 266.65" style="fill:#92278f"/><path d="M432.05,495.46H429v0Z" transform="translate(-174.76 -235.3)" style="fill:#92278f"/><path d="M436,503v-7.5h-3.9l-3.1,0h-.5V503H429l3.42,0Z" transform="translate(-174.76 -235.3)" style="fill:#92278f"/><polygon points="408.25 0.5 370.41 38.33 370.77 38.69 409.45 0 354.73 0 354.72 0.5 408.25 0.5" style="fill:#92278f"/><polygon points="365.82 43.63 365.82 43.63 368.07 41.38 367.77 41.68 365.82 43.63" style="fill:#92278f"/><polygon points="390.14 8 364.74 33.4 364.74 33.4 365.12 33.02 367.88 35.84 370.41 38.33 408.25 0.5 354.72 0.5 354.7 4 354.73 8 390.14 8" style="fill:#92278f"/><polygon points="347.17 0.5 347.22 0.5 347.23 0 346.73 0 346.72 0.5 347.17 0.5" style="fill:#92278f"/><path d="M521.43,239.3v3.5h.05l0-3.1C521.44,239.56,521.43,239.43,521.43,239.3Z" transform="translate(-174.76 -235.3)" style="fill:#92278f"/><polygon points="365.44 44 365.09 43.66 365.06 43.69 365.06 43.69 364.75 43.99 364.75 43.99 365.11 44.34 365.82 43.63 367.77 41.68 365.44 44" style="fill:#92278f"/><path d="M537,276.84h0l-.27-.28-.1-.11-2.08-2.12,0,0Z" transform="translate(-174.76 -235.3)" style="fill:#92278f"/><path d="M534.87,274l0,0-.35-.36-.34.34h0l.35.35,2.08,2.12.1.11.27.28h0l2.47,2.47,0,0,.3-.31-2.47-2.47Z" transform="translate(-174.76 -235.3)" style="fill:#92278f"/><polygon points="362.04 36.1 364.74 33.4 364.74 33.4 364.74 33.4 362.04 36.1" style="fill:#92278f"/><path d="M521.44,239.7l0,3.1v.5h.5v-.5h-.05v-7h-.5v3.5C521.43,239.43,521.44,239.56,521.44,239.7Z" transform="translate(-174.76 -235.3)" style="fill:#92278f"/><polygon points="367.88 35.84 370.37 38.38 365.09 43.66 365.44 44 367.77 41.68 368.07 41.38 370.77 38.69 370.77 38.69 370.41 38.33 367.88 35.84" style="fill:#92278f"/><path d="M537.35,276.51h0l-.27-.28-.1-.11L534.9,274l0,0Z" transform="translate(-174.76 -235.3)" style="fill:#92278f"/><polygon points="347.67 0.5 353.67 0.5 354.17 0.5 354.67 0.5 354.7 4 354.72 0.5 354.73 0 354.23 0 353.73 0 347.73 0 347.23 0 347.22 0.5 347.67 0.5" style="fill:#92278f"/><path d="M521.93,239.3v3.5H522l0-3.1C521.94,239.56,521.93,239.43,521.93,239.3Z" transform="translate(-174.76 -235.3)" style="fill:#92278f"/><path d="M521.94,239.7l0,3.1v.5h7.5l0-4,0-3.5h-7.5v3.5C521.93,239.43,521.94,239.56,521.94,239.7Z" transform="translate(-174.76 -235.3)" style="fill:#92278f"/><path d="M539.5,268.7l-2.7,2.7-2.25,2.25h0l.35.36,2.08,2.11.1.11.27.28h0l2.47,2.47h0l0,0,5.28-5.29-2.49-2.53-2.76-2.82Z" transform="translate(-174.76 -235.3)" style="fill:#92278f"/><polygon points="555.38 142.6 522.92 183.6 523.31 183.9 520.91 186.94 520.59 187.34 522.69 184.69 556.42 142.1 503.08 142.1 503.07 142.6 555.38 142.6" style="fill:#92278f"/><polygon points="517.03 178.95 521.07 182.17 522.92 183.6 555.38 142.6 503.07 142.6 503.05 146.1 503.08 150.1 539.88 150.1 516.71 179.35 516.71 179.35 517.03 178.95" style="fill:#92278f"/><polygon points="495.52 142.6 495.57 142.6 495.58 142.1 495.08 142.1 495.07 142.6 495.52 142.6" style="fill:#92278f"/><path d="M669.83,384.9l0-3.1v3.1Z" transform="translate(-174.76 -235.3)" style="fill:#92278f"/><polygon points="512.44 185.55 515.02 187.57 512.47 185.51 512.44 185.55" style="fill:#92278f"/><polygon points="520.91 186.94 518.63 189.81 518.24 189.5 518.23 189.52 518.22 189.52 517.95 189.87 518.21 190.08 518.34 190.18 520.44 187.53 520.59 187.34 520.91 186.94" style="fill:#92278f"/><path d="M670.29,384.9v-7h-.5v3.9l0,3.1v.5h.5v-.5Z" transform="translate(-174.76 -235.3)" style="fill:#92278f"/><polygon points="516.71 179.35 516.71 179.35 514.48 182.17 516.71 179.35 516.71 179.35" style="fill:#92278f"/><polygon points="512.73 185.18 512.75 185.15 512.37 184.84 512.08 185.21 512.47 185.51 515.02 187.57 517.79 189.81 517.91 189.91 517.95 189.87 518.22 189.52 516.42 188.08 512.73 185.18" style="fill:#92278f"/><polygon points="496.02 142.6 502.02 142.6 502.52 142.6 503.02 142.6 503.05 146.1 503.07 142.6 503.08 142.1 502.58 142.1 502.08 142.1 496.08 142.1 495.58 142.1 495.57 142.6 496.02 142.6" style="fill:#92278f"/><path d="M670.33,384.9l0-3.1v3.1Z" transform="translate(-174.76 -235.3)" style="fill:#92278f"/><polygon points="522.92 183.6 521.07 182.17 522.9 183.62 518.24 189.5 518.63 189.81 520.91 186.94 523.31 183.9 522.92 183.6" style="fill:#92278f"/><polygon points="516.42 188.08 512.75 185.15 512.73 185.18 516.42 188.08" style="fill:#92278f"/><path d="M677.79,377.9h-7.5v3.9l0,3.1v.5h7.5l0-4Z" transform="translate(-174.76 -235.3)" style="fill:#92278f"/><polygon points="512.37 184.84 512.75 185.15 516.42 188.08 518.22 189.52 518.23 189.52 518.24 189.5 522.9 183.62 521.07 182.17 517.03 178.95 516.71 179.35 514.48 182.17 514.26 182.44 512.36 184.84 512.37 184.84" style="fill:#92278f"/><polygon points="429.01 279.97 428.98 279.95 428.94 280 428.97 280.02 429.01 279.97" style="fill:#92278f"/><polygon points="431.24 290.05 431.1 290.21 408.95 328.27 405.64 326.01 405.62 326.04 409.18 328.86 433.25 287.5 431.24 290.05 431.24 290.05" style="fill:#92278f"/><polygon points="426.98 282.54 428.97 280.02 428.94 280 428.55 279.7 426.84 282.63 426.67 282.93 426.98 282.54" style="fill:#92278f"/><polygon points="431.1 290.21 430.9 290.47 428.38 288.44 425 285.8 402.85 323.85 405.23 325.73 405.64 326.01 408.95 328.27 431.1 290.21" style="fill:#92278f"/><polygon points="431.24 290.05 431.24 290.05 433.25 287.5 433.67 286.97 433.67 286.97 431.24 290.05" style="fill:#92278f"/><polygon points="430 279.53 432.29 281.33 430.01 279.51 430 279.53" style="fill:#92278f"/><polygon points="435.21 284.23 435.21 284.23 435.19 284.25 435.58 284.56 435.87 284.19 435.61 283.99 435.48 283.88 435.21 284.23" style="fill:#92278f"/><polygon points="426.98 282.54 429.3 279.61 429.69 279.92 429.73 279.88 433.48 282.88 435.21 284.23 435.48 283.88 435.5 283.85 432.29 281.33 430 279.53 429.73 279.32 429.6 279.22 429.01 279.97 428.97 280.02 426.98 282.54" style="fill:#92278f"/><polygon points="430.54 290.13 428.38 288.44 430.9 290.47 431.1 290.21 431.24 290.05 433.67 286.97 435.58 284.56 435.58 284.56 435.19 284.25 430.54 290.13" style="fill:#92278f"/><polygon points="429.69 279.92 433.48 282.88 429.73 279.88 429.69 279.92" style="fill:#92278f"/><polygon points="430.54 290.13 435.19 284.25 435.21 284.23 435.21 284.23 433.48 282.88 429.69 279.92 429.3 279.61 426.98 282.54 426.67 282.93 425.26 284.71 424.63 285.51 425 285.8 428.38 288.44 430.54 290.13" style="fill:#92278f"/><polygon points="12.07 225.12 15.57 225.08 15.54 222.47 15.24 196.79 15.23 196.09 15.23 196.09 15.22 194.74 11.72 194.78 8.22 194.82 8.24 196.35 8.24 197.04 8.56 224 8.57 225.16 12.07 225.12" style="fill:#92278f"/><polygon points="8.18 194.41 15.14 193.7 14.9 191.31 8.31 126.43 7.96 122.98 0.99 123.69 1.12 124.89 1.12 124.92 8.02 192.85 8.02 192.88 8.18 194.41" style="fill:#92278f"/><polygon points="257.9 150.1 258.55 149.83 255.83 143.38 253.97 144.16 253.69 144.28 219.2 158.85 220.55 162.06 221.92 165.3 223.35 164.7 253.69 151.88 254.19 151.67 257.9 150.1" style="fill:#92278f"/></svg>